<svg width="128" height="128" viewBox="0 0 128 128" fill="none" xmlns="http://www.w3.org/2000/svg">
<g clip-path="url(#clip0_50:127)">
<path d="M113 107V123C113 124.061 112.579 125.078 111.828 125.828C111.078 126.579 110.061 127 109 127H23.31C21.2441 127.034 19.2411 126.289 17.7008 124.911C16.1604 123.534 15.196 121.627 15 119.57C14.9216 118.472 15.0705 117.371 15.4372 116.333C15.804 115.296 16.3809 114.345 17.1317 113.541C17.8825 112.737 18.7912 112.096 19.8009 111.659C20.8106 111.221 21.8997 110.997 23 111H109C110.061 111 111.078 110.579 111.828 109.828C112.579 109.078 113 108.061 113 107Z" fill="#F0F3F8"/>
<path d="M113 118V123C113 124.061 112.579 125.078 111.828 125.828C111.078 126.579 110.061 127 109 127H23.31C17.74 127 13.62 121.73 15.41 116.49C15.994 118.113 17.0678 119.516 18.4829 120.503C19.898 121.49 21.5847 122.013 23.31 122H109C110.061 122 111.078 121.579 111.828 120.828C112.579 120.078 113 119.061 113 118Z" fill="#DFE3EA"/>
<path d="M113 5V107C113 108.061 112.579 109.078 111.828 109.828C111.078 110.579 110.061 111 109 111H23C21.5776 110.993 20.1792 111.366 18.9488 112.08C17.7184 112.793 16.7005 113.822 16 115.06C14.48 117.55 15 145 15 9C15 6.87827 15.8429 4.84344 17.3432 3.34315C18.8434 1.84285 20.8783 1 23 1H109C110.061 1 111.078 1.42143 111.828 2.17157C112.579 2.92172 113 3.93913 113 5Z" fill="#3077B8"/>
<path d="M113 101V107C113 108.061 112.579 109.078 111.828 109.828C111.078 110.579 110.061 111 109 111H23C20.8783 111 18.8434 111.843 17.3431 113.343C15.8429 114.843 15 116.878 15 119C15 113.77 14.49 110.59 16.83 107.91C17.5804 107 18.5226 106.267 19.5893 105.764C20.6559 105.261 21.8207 105 23 105H109C110.061 105 111.078 104.579 111.828 103.828C112.579 103.078 113 102.061 113 101Z" fill="#2E6CA6"/>
<path d="M88.56 69.5C67.92 86.94 36 72.2 36 45C36 36.5131 39.3714 28.3737 45.3726 22.3726C51.3737 16.3714 59.5131 13 68 13C97.91 13 111.3 50.45 88.56 69.5Z" fill="#F0F3F8"/>
<path d="M88.56 69.5C67 87.72 33.75 70.74 36.1 42.46C36.7359 50.4842 40.3724 57.974 46.2847 63.4363C52.197 68.8986 59.9507 71.9322 68 71.9322C76.0493 71.9322 83.803 68.8986 89.7153 63.4363C95.6276 57.974 99.2642 50.4842 99.9 42.46C100.312 47.5457 99.4965 52.6559 97.5232 57.3611C95.5499 62.0664 92.4761 66.2293 88.56 69.5V69.5Z" fill="#DBDBDC"/>
<path d="M88.53 69.51C82.7846 74.3514 75.5132 77.0065 68 77.0065C60.4868 77.0065 53.2154 74.3514 47.47 69.51C53.29 44.81 82.72 44.85 88.53 69.51Z" fill="#DB5A48"/>
<path d="M68 51C74.6274 51 80 45.6274 80 39C80 32.3726 74.6274 27 68 27C61.3726 27 56 32.3726 56 39C56 45.6274 61.3726 51 68 51Z" fill="#DB5A48"/>
<path d="M68 51C66.2551 50.9997 64.5312 50.6188 62.9486 49.884C61.3659 49.1491 59.9625 48.078 58.8363 46.7451C57.7101 45.4123 56.8881 43.8499 56.4276 42.1669C55.9671 40.4838 55.8792 38.7205 56.17 37C56.6453 39.7935 58.0938 42.3287 60.259 44.1566C62.4242 45.9845 65.1664 46.9873 68 46.9873C70.8336 46.9873 73.5758 45.9845 75.741 44.1566C77.9062 42.3287 79.3547 39.7935 79.83 37C80.1208 38.7205 80.0329 40.4838 79.5724 42.1669C79.1119 43.8499 78.2899 45.4123 77.1637 46.7451C76.0375 48.078 74.6341 49.1491 73.0515 49.884C71.4688 50.6188 69.7449 50.9997 68 51V51Z" fill="#C85140"/>
<path d="M25 1V111H23C20.8783 111 18.8434 111.843 17.3431 113.343C15.8429 114.843 15 116.878 15 119V9C15 6.87827 15.8429 4.84344 17.3431 3.34315C18.8434 1.84285 20.8783 1 23 1H25Z" fill="#657285"/>
<path d="M25 105V111H23C20.8783 111 18.8434 111.843 17.3431 113.343C15.8429 114.843 15 116.878 15 119C15 113.47 14.43 110.25 17.34 107.34C20 104.74 22.71 105 25 105Z" fill="#5B6678"/>
<path d="M88.53 69.51C82.7846 74.3514 75.5132 77.0065 68 77.0065C60.4868 77.0065 53.2154 74.3514 47.47 69.51C47.7919 68.15 48.2062 66.8136 48.71 65.51C54.2558 69.729 61.0318 72.0134 68 72.0134C74.9682 72.0134 81.7442 69.729 87.29 65.51C87.7938 66.8136 88.2081 68.15 88.53 69.51V69.51Z" fill="#C85140"/>
<path d="M109 0H23C20.6131 0 18.3239 0.948212 16.636 2.63604C14.9482 4.32387 14 6.61305 14 9C14 127 14 119 14 119.64C14.2161 121.949 15.2943 124.092 17.0198 125.641C18.7452 127.19 20.9912 128.033 23.31 128H109C110.326 128 111.598 127.473 112.536 126.536C113.473 125.598 114 124.326 114 123V5C114 3.67392 113.473 2.40215 112.536 1.46447C111.598 0.526784 110.326 0 109 0V0ZM112 5V107C112 107.796 111.684 108.559 111.121 109.121C110.559 109.684 109.796 110 109 110H26V2H109C109.796 2 110.559 2.31607 111.121 2.87868C111.684 3.44129 112 4.20435 112 5V5ZM16 9C16 7.14348 16.7375 5.36301 18.0503 4.05025C19.363 2.7375 21.1435 2 23 2H24V110H23C21.6745 109.999 20.3652 110.29 19.1655 110.854C17.9658 111.418 16.9054 112.239 16.06 113.26C16 113.34 16 118.28 16 9ZM112 123C112 123.796 111.684 124.559 111.121 125.121C110.559 125.684 109.796 126 109 126H23.31C17.18 126 13.75 119.06 17.63 114.57C18.2769 113.768 19.0949 113.122 20.024 112.677C20.9532 112.232 21.9699 112.001 23 112C113.91 112 110.06 112.44 112 111V123Z" fill="#47566A"/>
<path d="M56.15 75.81C62.7236 78.3392 69.934 78.6988 76.7266 76.8362C83.5192 74.9737 89.5377 70.9867 93.9019 65.4583C98.2661 59.9299 100.747 53.1503 100.982 46.1108C101.216 39.0714 99.1927 32.1415 95.2065 26.3347C91.2203 20.5278 85.4808 16.1487 78.8274 13.8378C72.1739 11.5268 64.9556 11.4053 58.2281 13.491C51.5006 15.5766 45.617 19.7601 41.4376 25.4294C37.2582 31.0988 35.0024 37.9566 35 45C35.0047 51.6699 37.0274 58.1823 40.8023 63.6813C44.5771 69.1803 49.9274 73.4084 56.15 75.81V75.81ZM48.62 69.13C54.51 46.31 81.48 46.3 87.38 69.13C81.8902 73.5553 75.0513 75.9685 68 75.9685C60.9487 75.9685 54.1097 73.5553 48.62 69.13V69.13ZM68 14C96.07 14 109.61 48.51 89.09 67.65C86.56 59 80.82 52.83 73.57 50.75C76.2371 49.4853 78.3944 47.3506 79.6871 44.6969C80.9797 42.0433 81.3309 39.0287 80.6827 36.149C80.0345 33.2693 78.4256 30.6959 76.1206 28.8521C73.8156 27.0082 70.9518 26.0037 68 26.0037C65.0482 26.0037 62.1844 27.0082 59.8794 28.8521C57.5744 30.6959 55.9655 33.2693 55.3173 36.149C54.6691 39.0287 55.0203 42.0433 56.3129 44.6969C57.6056 47.3506 59.7629 49.4853 62.43 50.75C55.18 52.83 49.43 58.99 46.91 67.67C26.45 48.69 39.8 14 68 14ZM68 50C65.8244 50 63.6977 49.3548 61.8887 48.1461C60.0798 46.9374 58.6699 45.2195 57.8373 43.2095C57.0048 41.1995 56.7869 38.9878 57.2114 36.854C57.6358 34.7202 58.6834 32.7602 60.2218 31.2218C61.7602 29.6834 63.7202 28.6358 65.854 28.2113C67.9878 27.7869 70.1995 28.0047 72.2095 28.8373C74.2195 29.6699 75.9375 31.0798 77.1462 32.8887C78.3549 34.6976 79 36.8244 79 39C79 40.4445 78.7155 41.8749 78.1627 43.2095C77.6099 44.5441 76.7996 45.7567 75.7782 46.7781C74.7567 47.7996 73.5441 48.6098 72.2095 49.1626C70.8749 49.7154 69.4445 50 68 50V50Z" fill="#47566A"/>
<path d="M96.5 87H40.5C40.2348 87 39.9804 87.1054 39.7929 87.2929C39.6054 87.4804 39.5 87.7348 39.5 88C39.5 88.2652 39.6054 88.5196 39.7929 88.7071C39.9804 88.8946 40.2348 89 40.5 89H96.5C96.7652 89 97.0196 88.8946 97.2071 88.7071C97.3946 88.5196 97.5 88.2652 97.5 88C97.5 87.7348 97.3946 87.4804 97.2071 87.2929C97.0196 87.1054 96.7652 87 96.5 87Z" fill="#47566A"/>
<path d="M96.5 99H40.5C40.2348 99 39.9804 99.1054 39.7929 99.2929C39.6054 99.4804 39.5 99.7348 39.5 100C39.5 100.265 39.6054 100.52 39.7929 100.707C39.9804 100.895 40.2348 101 40.5 101H96.5C96.7652 101 97.0196 100.895 97.2071 100.707C97.3946 100.52 97.5 100.265 97.5 100C97.5 99.7348 97.3946 99.4804 97.2071 99.2929C97.0196 99.1054 96.7652 99 96.5 99Z" fill="#47566A"/>
</g>
<defs>
<clipPath id="clip0_50:127">
<rect width="128" height="128" fill="white"/>
</clipPath>
</defs>
</svg>
