<svg width="128" height="128" viewBox="0 0 128 128" fill="none" xmlns="http://www.w3.org/2000/svg">
<g clip-path="url(#clip0_50:103)">
<path d="M90 12H4C2.34315 12 1 13.3431 1 15V124C1 125.657 2.34315 127 4 127H90C91.6569 127 93 125.657 93 124V15C93 13.3431 91.6569 12 90 12Z" fill="#3077B8"/>
<path d="M93 121V124C93 124.796 92.6839 125.559 92.1213 126.121C91.5587 126.684 90.7956 127 90 127H4C3.20435 127 2.44129 126.684 1.87868 126.121C1.31607 125.559 1 124.796 1 124V121C1 121.796 1.31607 122.559 1.87868 123.121C2.44129 123.684 3.20435 124 4 124H90C90.7956 124 91.5587 123.684 92.1213 123.121C92.6839 122.559 93 121.796 93 121V121Z" fill="#2B6DA9"/>
<path d="M84 19H10V119H84V19Z" fill="url(#paint0_linear_50:103)"/>
<path d="M84 114V119H10V114H84Z" fill="#C7CDD8"/>
<path d="M104 106C116.703 106 127 95.7025 127 83C127 70.2975 116.703 60 104 60C91.2975 60 81 70.2975 81 83C81 95.7025 91.2975 106 104 106Z" fill="#60C49A"/>
<path d="M104 106C100.811 106 97.6574 105.336 94.7388 104.052C91.8201 102.767 89.2005 100.89 87.0461 98.5392C84.8917 96.1883 83.2497 93.4151 82.2244 90.3957C81.199 87.3763 80.8127 84.1767 81.09 81C81.598 86.7256 84.2315 92.0535 88.4718 95.9342C92.7122 99.815 98.2519 101.967 104 101.967C109.748 101.967 115.288 99.815 119.528 95.9342C123.768 92.0535 126.402 86.7256 126.91 81C127.187 84.1767 126.801 87.3763 125.776 90.3957C124.75 93.4151 123.108 96.1883 120.954 98.5392C118.8 100.89 116.18 102.767 113.261 104.052C110.343 105.336 107.189 106 104 106Z" fill="#5AB68F"/>
<path d="M93 103.19V107.19C89.2379 105.136 86.1217 102.075 84 98.3501V94.3501C86.1209 98.0754 89.2373 101.136 93 103.19Z" fill="#2B6DA9"/>
<path d="M84 94.36V98.36C81.6909 94.3074 80.6755 89.6458 81.09 85C81.3737 88.2933 82.3664 91.4863 84 94.36V94.36Z" fill="#C7CDD8"/>
<path d="M76 35H18V48H76V35Z" fill="#DB5A48"/>
<path d="M54.93 7.99993C54.6741 6.07807 53.7289 4.31455 52.2703 3.03728C50.8117 1.76 48.9388 1.05591 47 1.05591C45.0612 1.05591 43.1883 1.76 41.7297 3.03728C40.2711 4.31455 39.3259 6.07807 39.07 7.99993H27V23.9999H67V7.99993H54.93ZM47 11.9999C46.4067 11.9999 45.8266 11.824 45.3333 11.4943C44.8399 11.1647 44.4554 10.6962 44.2284 10.148C44.0013 9.5998 43.9419 8.9966 44.0576 8.41465C44.1734 7.83271 44.4591 7.29816 44.8787 6.8786C45.2982 6.45905 45.8328 6.17333 46.4147 6.05757C46.9967 5.94181 47.5999 6.00122 48.148 6.22829C48.6962 6.45535 49.1648 6.83987 49.4944 7.33321C49.8241 7.82656 50 8.40658 50 8.99993C50 9.79557 49.6839 10.5586 49.1213 11.1212C48.5587 11.6839 47.7956 11.9999 47 11.9999V11.9999Z" fill="#DADDE3"/>
<path d="M67 20H27V24H67V20Z" fill="#BDC1CB"/>
<path d="M47 13C47.7911 13 48.5645 12.7654 49.2223 12.3259C49.8801 11.8864 50.3928 11.2616 50.6955 10.5307C50.9983 9.79983 51.0775 8.99556 50.9231 8.21964C50.7688 7.44372 50.3878 6.73098 49.8284 6.17157C49.269 5.61216 48.5563 5.2312 47.7804 5.07686C47.0044 4.92252 46.2002 5.00173 45.4693 5.30448C44.7384 5.60723 44.1136 6.11992 43.6741 6.77772C43.2346 7.43552 43 8.20888 43 9C43 10.0609 43.4214 11.0783 44.1716 11.8284C44.9217 12.5786 45.9391 13 47 13ZM47 7C47.3956 7 47.7822 7.1173 48.1111 7.33706C48.44 7.55683 48.6964 7.86918 48.8478 8.23464C48.9991 8.60009 49.0387 9.00222 48.9616 9.39018C48.8844 9.77814 48.6939 10.1345 48.4142 10.4142C48.1345 10.6939 47.7781 10.8844 47.3902 10.9616C47.0022 11.0387 46.6001 10.9991 46.2346 10.8478C45.8692 10.6964 45.5568 10.44 45.3371 10.1111C45.1173 9.78224 45 9.39556 45 9C45 8.46957 45.2107 7.96086 45.5858 7.58579C45.9609 7.21072 46.4696 7 47 7Z" fill="#47566A"/>
<path d="M94 61.16V15C94 13.9391 93.5786 12.9217 92.8284 12.1716C92.0783 11.4214 91.0609 11 90 11H68V8.00001C68 7.7348 67.8946 7.48044 67.7071 7.29291C67.5196 7.10537 67.2652 7.00001 67 7.00001H55.79C55.3495 4.99672 54.2379 3.20399 52.6393 1.91875C51.0408 0.633504 49.0512 -0.0671387 47 -0.0671387C44.9488 -0.0671387 42.9592 0.633504 41.3607 1.91875C39.7621 3.20399 38.6505 4.99672 38.21 7.00001H27C26.7348 7.00001 26.4804 7.10537 26.2929 7.29291C26.1054 7.48044 26 7.7348 26 8.00001V11H4C2.93913 11 1.92172 11.4214 1.17157 12.1716C0.421427 12.9217 0 13.9391 0 15L0 124C0 125.061 0.421427 126.078 1.17157 126.828C1.92172 127.579 2.93913 128 4 128H90C91.0609 128 92.0783 127.579 92.8284 126.828C93.5786 126.078 94 125.061 94 124V104.84C97.656 106.506 101.672 107.227 105.679 106.938C109.686 106.648 113.556 105.358 116.935 103.184C120.314 101.011 123.093 98.0238 125.017 94.4973C126.942 90.9708 127.951 87.0175 127.951 83C127.951 78.9825 126.942 75.0292 125.017 71.5027C123.093 67.9762 120.314 64.9892 116.935 62.8157C113.556 60.6421 109.686 59.3516 105.679 59.0623C101.672 58.773 97.656 59.4943 94 61.16V61.16ZM90 13C90.5304 13 91.0391 13.2107 91.4142 13.5858C91.7893 13.9609 92 14.4696 92 15V62.22C89.2936 63.7724 86.916 65.8376 85 68.3V19C85 18.7348 84.8946 18.4804 84.7071 18.2929C84.5196 18.1054 84.2652 18 84 18H68V13H90ZM27 25H67C67.2652 25 67.5196 24.8947 67.7071 24.7071C67.8946 24.5196 68 24.2652 68 24V20H83V71.39C81.0355 74.9443 80.005 78.9389 80.005 83C80.005 87.0611 81.0355 91.0557 83 94.61V118H11V20H26V24C26 24.2652 26.1054 24.5196 26.2929 24.7071C26.4804 24.8947 26.7348 25 27 25ZM28 9.00001H39.07C39.3172 9.00151 39.5562 8.91139 39.7409 8.74703C39.9256 8.58267 40.0428 8.35573 40.07 8.11001C40.3223 6.4555 41.1591 4.94613 42.4286 3.85554C43.6981 2.76494 45.3164 2.16529 46.99 2.16529C48.6636 2.16529 50.2819 2.76494 51.5514 3.85554C52.8209 4.94613 53.6577 6.4555 53.91 8.11001C53.9372 8.35573 54.0544 8.58267 54.2391 8.74703C54.4238 8.91139 54.6628 9.00151 54.91 9.00001H66V23H28V9.00001ZM92 124C92 124.53 91.7893 125.039 91.4142 125.414C91.0391 125.789 90.5304 126 90 126H4C3.46957 126 2.96086 125.789 2.58579 125.414C2.21071 125.039 2 124.53 2 124V15C2 14.4696 2.21071 13.9609 2.58579 13.5858C2.96086 13.2107 3.46957 13 4 13H26V18H10C9.73478 18 9.48043 18.1054 9.29289 18.2929C9.10536 18.4804 9 18.7348 9 19V119C9 119.265 9.10536 119.52 9.29289 119.707C9.48043 119.895 9.73478 120 10 120H84C84.2652 120 84.5196 119.895 84.7071 119.707C84.8946 119.52 85 119.265 85 119V97.7C86.916 100.162 89.2936 102.228 92 103.78V124ZM104 105C99.6488 105 95.3953 103.71 91.7775 101.292C88.1596 98.875 85.3398 95.439 83.6747 91.4191C82.0095 87.3991 81.5738 82.9756 82.4227 78.708C83.2716 74.4404 85.3669 70.5204 88.4436 67.4437C91.5204 64.3669 95.4404 62.2716 99.708 61.4227C103.976 60.5739 108.399 61.0095 112.419 62.6747C116.439 64.3398 119.875 67.1596 122.292 70.7775C124.71 74.3954 126 78.6488 126 83C126 88.8348 123.682 94.4306 119.556 98.5564C115.431 102.682 109.835 105 104 105V105Z" fill="#47566A"/>
<path d="M115.28 74.2799L100 89.5599L92.72 82.2799C92.529 82.089 92.27 81.9817 92 81.9817C91.7299 81.9817 91.4709 82.089 91.28 82.2799C91.089 82.4709 90.9818 82.7299 90.9818 82.9999C90.9818 83.27 91.089 83.529 91.28 83.7199C99.91 92.3499 99.4 91.9999 100 91.9999C100.6 91.9999 99.2 93.2199 116.72 75.6999C116.908 75.509 117.013 75.2511 117.011 74.9829C117.009 74.7147 116.901 74.4582 116.71 74.2699C116.519 74.0816 116.261 73.9769 115.993 73.9788C115.725 73.9807 115.468 74.089 115.28 74.2799V74.2799Z" fill="#47566A"/>
<path d="M17 35V48C17 48.2652 17.1054 48.5196 17.2929 48.7071C17.4804 48.8946 17.7348 49 18 49H76C76.2652 49 76.5196 48.8946 76.7071 48.7071C76.8946 48.5196 77 48.2652 77 48V35C77 34.7348 76.8946 34.4804 76.7071 34.2929C76.5196 34.1054 76.2652 34 76 34H18C17.7348 34 17.4804 34.1054 17.2929 34.2929C17.1054 34.4804 17 34.7348 17 35ZM19 36H75V47H19V36Z" fill="#47566A"/>
<path d="M76 58H24C23.7348 58 23.4804 58.1054 23.2929 58.2929C23.1054 58.4804 23 58.7348 23 59C23 59.2652 23.1054 59.5196 23.2929 59.7071C23.4804 59.8946 23.7348 60 24 60H76C76.2652 60 76.5196 59.8946 76.7071 59.7071C76.8946 59.5196 77 59.2652 77 59C77 58.7348 76.8946 58.4804 76.7071 58.2929C76.5196 58.1054 76.2652 58 76 58Z" fill="#47566A"/>
<path d="M76 66H18C17.7348 66 17.4804 66.1054 17.2929 66.2929C17.1054 66.4804 17 66.7348 17 67C17 67.2652 17.1054 67.5196 17.2929 67.7071C17.4804 67.8946 17.7348 68 18 68H76C76.2652 68 76.5196 67.8946 76.7071 67.7071C76.8946 67.5196 77 67.2652 77 67C77 66.7348 76.8946 66.4804 76.7071 66.2929C76.5196 66.1054 76.2652 66 76 66Z" fill="#47566A"/>
<path d="M76 74H18C17.7348 74 17.4804 74.1054 17.2929 74.2929C17.1054 74.4804 17 74.7348 17 75C17 75.2652 17.1054 75.5196 17.2929 75.7071C17.4804 75.8946 17.7348 76 18 76H76C76.2652 76 76.5196 75.8946 76.7071 75.7071C76.8946 75.5196 77 75.2652 77 75C77 74.7348 76.8946 74.4804 76.7071 74.2929C76.5196 74.1054 76.2652 74 76 74Z" fill="#47566A"/>
<path d="M18 84H48C48.2652 84 48.5196 83.8946 48.7071 83.7071C48.8946 83.5196 49 83.2652 49 83C49 82.7348 48.8946 82.4804 48.7071 82.2929C48.5196 82.1054 48.2652 82 48 82H18C17.7348 82 17.4804 82.1054 17.2929 82.2929C17.1054 82.4804 17 82.7348 17 83C17 83.2652 17.1054 83.5196 17.2929 83.7071C17.4804 83.8946 17.7348 84 18 84Z" fill="#47566A"/>
<path d="M76 90H24C23.7348 90 23.4804 90.1054 23.2929 90.2929C23.1054 90.4804 23 90.7348 23 91C23 91.2652 23.1054 91.5196 23.2929 91.7071C23.4804 91.8946 23.7348 92 24 92H76C76.2652 92 76.5196 91.8946 76.7071 91.7071C76.8946 91.5196 77 91.2652 77 91C77 90.7348 76.8946 90.4804 76.7071 90.2929C76.5196 90.1054 76.2652 90 76 90Z" fill="#47566A"/>
<path d="M76 98H18C17.7348 98 17.4804 98.1054 17.2929 98.2929C17.1054 98.4804 17 98.7348 17 99C17 99.2652 17.1054 99.5196 17.2929 99.7071C17.4804 99.8946 17.7348 100 18 100H76C76.2652 100 76.5196 99.8946 76.7071 99.7071C76.8946 99.5196 77 99.2652 77 99C77 98.7348 76.8946 98.4804 76.7071 98.2929C76.5196 98.1054 76.2652 98 76 98Z" fill="#47566A"/>
<path d="M64 106H18C17.7348 106 17.4804 106.105 17.2929 106.293C17.1054 106.48 17 106.735 17 107C17 107.265 17.1054 107.52 17.2929 107.707C17.4804 107.895 17.7348 108 18 108H64C64.2652 108 64.5196 107.895 64.7071 107.707C64.8946 107.52 65 107.265 65 107C65 106.735 64.8946 106.48 64.7071 106.293C64.5196 106.105 64.2652 106 64 106Z" fill="#47566A"/>
</g>
<defs>
<linearGradient id="paint0_linear_50:103" x1="47" y1="119" x2="47" y2="19" gradientUnits="userSpaceOnUse">
<stop stop-color="#DDE1E8"/>
<stop offset="1" stop-color="#F3F4F5"/>
</linearGradient>
<clipPath id="clip0_50:103">
<rect width="128" height="128" fill="white"/>
</clipPath>
</defs>
</svg>
