<svg width="128" height="128" viewBox="0 0 128 128" fill="none" xmlns="http://www.w3.org/2000/svg">
<g clip-path="url(#clip0_50:92)">
<path d="M101 73V123C101 124.061 100.579 125.078 99.8284 125.828C99.0783 126.579 98.0609 127 97 127C95.9391 127 94.9217 126.579 94.1716 125.828C93.4214 125.078 93 124.061 93 123V89H49L35 83V73H101Z" fill="#3077B8"/>
<path d="M93 123V89H49L45 83H27V123C27 124.061 27.4214 125.078 28.1716 125.828C28.9217 126.579 29.9391 127 31 127H97C95.9391 127 94.9217 126.579 94.1716 125.828C93.4214 125.078 93 124.061 93 123Z" fill="#3077B8"/>
<path d="M101 119V123C101 124.061 100.579 125.078 99.8284 125.828C99.0783 126.579 98.0609 127 97 127C95.9391 127 94.9217 126.579 94.1716 125.828C93.4214 125.078 93 124.061 93 123V119C93 120.061 93.4214 121.078 94.1716 121.828C94.9217 122.579 95.9391 123 97 123C98.0609 123 99.0783 122.579 99.8284 121.828C100.579 121.078 101 120.061 101 119Z" fill="#2C6DA9"/>
<path d="M32.11 61C27.7135 60.974 23.4949 59.2605 20.3255 56.2134C17.1561 53.1663 15.278 49.0184 15.079 44.6263C14.8801 40.2342 16.3755 35.9335 19.2565 32.6124C22.1375 29.2912 26.1839 27.2034 30.56 26.78C30.5217 20.8307 32.5518 15.053 36.303 10.4353C40.0543 5.81759 45.2935 2.64685 51.1244 1.46555C56.9554 0.284245 63.0156 1.16579 68.2683 3.95935C73.521 6.75292 77.6398 11.2849 79.92 16.78C90.79 12.23 102 23.46 97 34.51H99.74C103.19 34.6048 106.466 36.0418 108.873 38.5154C111.28 40.989 112.626 44.3039 112.626 47.755C112.626 51.2061 111.28 54.521 108.873 56.9946C106.466 59.4681 103.19 60.9052 99.74 61H32.11Z" fill="url(#paint0_linear_50:92)"/>
<path d="M99.78 61H32.11C29.6504 60.9964 27.2204 60.4632 24.9853 59.4366C22.7502 58.41 20.7624 56.9141 19.1571 55.0507C17.5517 53.1872 16.3664 51 15.6819 48.6375C14.9974 46.2751 14.8296 43.793 15.19 41.36C15.783 45.425 17.8188 49.1409 20.9254 51.8289C24.032 54.5169 28.002 55.9974 32.11 56H99.78C102.86 56.003 105.844 54.9306 108.217 52.9679C110.591 51.0053 112.205 48.2756 112.78 45.25C113.15 47.166 113.092 49.1402 112.61 51.0312C112.127 52.9221 111.233 54.6831 109.991 56.1881C108.749 57.6931 107.189 58.9049 105.424 59.7368C103.659 60.5686 101.731 61 99.78 61V61Z" fill="#C7CDD8"/>
<path d="M97 127H31C29.9391 127 28.9217 126.579 28.1716 125.828C27.4214 125.078 27 124.061 27 123V119C27 120.061 27.4214 121.078 28.1716 121.828C28.9217 122.579 29.9391 123 31 123H93C93 124.061 93.4214 125.078 94.1716 125.828C94.9217 126.579 95.9391 127 97 127Z" fill="#2C6DA9"/>
<path d="M71 55V81H57V55H50L64 41L78 55H71V81H57V55H50L64 41L78 55H72" fill="#60C49A"/>
<path d="M71 76H57V81H71V76Z" fill="#58B18C"/>
<path d="M99.78 62C103.498 61.9015 107.031 60.3554 109.625 57.691C112.22 55.0265 113.672 51.4542 113.672 47.735C113.672 44.0158 112.22 40.4435 109.625 37.779C107.031 35.1145 103.498 33.5684 99.78 33.47H98.53C99.3576 30.9567 99.4702 28.2629 98.8551 25.6893C98.24 23.1158 96.9215 20.764 95.0468 18.8966C93.1722 17.0292 90.8152 15.7198 88.2393 15.1147C85.6634 14.5096 82.97 14.6326 80.46 15.47C77.9447 9.99952 73.653 5.5407 68.2826 2.81839C62.9121 0.0960698 56.7788 -0.729661 50.8796 0.475435C44.9804 1.68053 39.6623 4.84559 35.7899 9.45606C31.9174 14.0665 29.7183 19.8513 29.55 25.87C25.0383 26.5603 20.9517 28.9233 18.1027 32.4891C15.2537 36.055 13.851 40.5624 14.1736 45.1152C14.4962 49.668 16.5204 53.9326 19.8437 57.0611C23.167 60.1896 27.546 61.9527 32.11 62H56V72H35C34.7348 72 34.4804 72.1053 34.2929 72.2929C34.1054 72.4804 34 72.7348 34 73V82H27C26.7348 82 26.4804 82.1053 26.2929 82.2929C26.1054 82.4804 26 82.7348 26 83V123C26 124.326 26.5268 125.598 27.4645 126.536C28.4021 127.473 29.6739 128 31 128H97C98.3261 128 99.5978 127.473 100.536 126.536C101.473 125.598 102 124.326 102 123V73C102 72.7348 101.895 72.4804 101.707 72.2929C101.52 72.1053 101.265 72 101 72H72V62H99.78ZM32.11 60C27.8938 60.1037 23.8049 58.5509 20.7203 55.6748C17.6357 52.7986 15.8011 48.8281 15.6101 44.615C15.4191 40.4019 16.8868 36.2817 19.6985 33.1382C22.5101 29.9947 26.4417 28.0782 30.65 27.8C30.9105 27.7613 31.1483 27.6296 31.3193 27.4293C31.4902 27.2289 31.5828 26.9734 31.58 26.71C31.5571 20.9974 33.5198 15.4543 37.1324 11.029C40.745 6.6037 45.783 3.57115 51.3846 2.45013C56.9861 1.3291 62.8032 2.18927 67.8406 4.88348C72.878 7.57769 76.8227 11.9385 79 17.22C79.0503 17.3437 79.1249 17.4562 79.2193 17.5506C79.3138 17.6451 79.4262 17.7197 79.55 17.77C80.41 18.13 81.45 16.83 85.02 16.83C87.0595 16.837 89.0649 17.3544 90.8532 18.3351C92.6416 19.3157 94.156 20.7284 95.2585 22.4443C96.361 24.1602 97.0165 26.1247 97.1653 28.1588C97.314 30.193 96.9512 32.232 96.11 34.09C96.0356 34.2418 96.0009 34.4101 96.0092 34.579C96.0174 34.7479 96.0684 34.9119 96.1573 35.0558C96.2462 35.1996 96.3702 35.3186 96.5175 35.4015C96.6649 35.4844 96.8309 35.5286 97 35.53H99.74C102.922 35.621 105.943 36.9489 108.161 39.2316C110.379 41.5143 111.62 44.5719 111.62 47.755C111.62 50.938 110.379 53.9957 108.161 56.2784C105.943 58.5611 102.922 59.889 99.74 59.98H72V56H78C78.2059 56.01 78.4099 55.9562 78.584 55.8458C78.7581 55.7355 78.8939 55.574 78.9727 55.3835C79.0515 55.193 79.0696 54.9828 79.0243 54.7817C78.9791 54.5806 78.8728 54.3984 78.72 54.26L64.72 40.26C64.6267 40.1632 64.5149 40.0862 64.3912 40.0336C64.2675 39.9811 64.1344 39.954 64 39.954C63.8656 39.954 63.7325 39.9811 63.6088 40.0336C63.4851 40.0862 63.3733 40.1632 63.28 40.26C46.48 57.06 49.19 53.92 49.19 55.61C49.61 56.14 49.59 56 55.98 56V60H32.11ZM58 55C58 54.7348 57.8946 54.4804 57.7071 54.2929C57.5196 54.1053 57.2652 54 57 54H52.46L64 42.44L75.54 54H71C70.7348 54 70.4804 54.1053 70.2929 54.2929C70.1054 54.4804 70 54.7348 70 55V80H58V55ZM31 126C30.2043 126 29.4413 125.684 28.8787 125.121C28.3161 124.559 28 123.796 28 123V84H44.45L48.15 89.55C48.62 90.25 46.49 90 91.98 90C91.98 125.31 91.65 123.84 92.73 125.6C93.06 126.14 99.86 126 31 126ZM100 74V123C99.9861 123.633 99.7724 124.245 99.3896 124.749C99.0067 125.253 98.4744 125.623 97.8686 125.806C97.2628 125.989 96.6146 125.976 96.0167 125.768C95.4189 125.56 94.902 125.169 94.54 124.65C93.81 123.57 94 126 94 89C94 88.7348 93.8946 88.4804 93.7071 88.2929C93.5196 88.1053 93.2652 88 93 88H49.55C45.55 82 45.74 82 45 82H36V74H56V81C56 81.2652 56.1054 81.5195 56.2929 81.7071C56.4804 81.8946 56.7348 82 57 82H71C71.2652 82 71.5196 81.8946 71.7071 81.7071C71.8946 81.5195 72 81.2652 72 81V74H100Z" fill="#47566A"/>
</g>
<defs>
<linearGradient id="paint0_linear_50:92" x1="64" y1="61" x2="64" y2="0.99998" gradientUnits="userSpaceOnUse">
<stop stop-color="#EFF2F7"/>
<stop offset="1" stop-color="#F3F4F5"/>
</linearGradient>
<clipPath id="clip0_50:92">
<rect width="128" height="128" fill="white"/>
</clipPath>
</defs>
</svg>
